<svg xmlns="http://www.w3.org/2000/svg" width="32" height="32" viewBox="0 0 32 32">
  <defs>
    <filter id="uos-窗口-a" width="126.7%" height="126.7%" x="-13.3%" y="-13.3%" filterUnits="objectBoundingBox">
      <feOffset dy="1" in="SourceAlpha" result="shadowOffsetOuter1"/>
      <feGaussianBlur in="shadowOffsetOuter1" result="shadowBlurOuter1" stdDeviation=".5"/>
      <feComposite in="shadowBlurOuter1" in2="SourceAlpha" operator="out" result="shadowBlurOuter1"/>
      <feColorMatrix in="shadowBlurOuter1" result="shadowMatrixOuter1" values="0 0 0 0 0   0 0 0 0 0   0 0 0 0 0  0 0 0 0.15 0"/>
      <feMerge>
        <feMergeNode in="shadowMatrixOuter1"/>
        <feMergeNode in="SourceGraphic"/>
      </feMerge>
    </filter>
    <linearGradient id="uos-窗口-b" x1="15.968%" x2="100%" y1="14.224%" y2="60.554%">
      <stop offset="0%" stop-color="#0071FF"/>
      <stop offset="48.72%" stop-color="#00E8FC"/>
      <stop offset="100%" stop-color="#00A2FF"/>
    </linearGradient>
  </defs>
  <g fill="none" filter="url(#uos-窗口-a)" transform="translate(1 1)">
    <circle cx="15" cy="15" r="15" fill="url(#uos-窗口-b)"/>
    <path fill="#FFF" d="M20,9.5 L20,16 C20,18.9622546 17.75,21 15,21 C12.25,21 10,18.9622546 10,16 L10,9.5 C10,8.75943636 9.24056364,8 8.5,8 C7.75943636,8 7,8.75943636 7,9.5 L7,16 C7,20.4433819 10.5566181,24 15,24 C19.4433819,24 23,20.4433819 23,16 L23,9.5 C23,8.75943636 22.2405636,8 21.5,8 C20.7594364,8 20,8.75943636 20,9.5 Z"/>
  </g>
</svg>
