<svg xmlns="http://www.w3.org/2000/svg" width="156" height="46" viewBox="0 0 156 46">
  <defs>
    <linearGradient id="uos-a" x1="0%" x2="100%" y1="45.653%" y2="54.347%">
      <stop offset="0%" stop-color="#0071FF"/>
      <stop offset="21.078%" stop-color="#00FBFF" stop-opacity=".755"/>
      <stop offset="45.882%" stop-color="#006CFF" stop-opacity=".918"/>
      <stop offset="71.851%" stop-color="#00FCA7"/>
      <stop offset="100%" stop-color="#00A2FF"/>
    </linearGradient>
  </defs>
  <path fill="url(#uos-a)" d="M149,80 C150.656854,80 152,81.3431458 152,83 L152,83 L152,103 C152,115.702549 141.702549,126 129,126 C116.297451,126 106,115.702549 106,103 L106,103 L106,83 C106,81.3431458 107.343146,80 109,80 C110.656854,80 112,81.3431458 112,83 L112,83 L112,103 C112,112.388841 119.611159,120 129,120 C138.388841,120 146,112.388841 146,103 L146,103 L146,83 C146,81.3431458 147.343146,80 149,80 Z M190,80 C200.49341,80 209,88.5065898 209,99 L209,107 C209,117.49341 200.49341,126 190,126 L182,126 C171.50659,126 163,117.49341 163,107 L163,99 C163,88.5065898 171.50659,80 182,80 L190,80 Z M257,80 C258.656854,80 260,81.3431458 260,83 C260,84.6568542 258.656854,86 257,86 L257,86 L231,86 C227.134007,86 224,89.1340068 224,93 C224,96.8659932 227.134007,100 231,100 L231,100 L249,100 C256.179702,100 262,105.820298 262,113 C262,120.179702 256.179702,126 249,126 L249,126 L223,126 C221.343146,126 220,124.656854 220,123 C220,121.343146 221.343146,120 223,120 L223,120 L249,120 C252.865993,120 256,116.865993 256,113 C256,109.134007 252.865993,106 249,106 L249,106 L231,106 C223.820298,106 218,100.179702 218,93 C218,85.8202983 223.820298,80 231,80 L231,80 Z M190,86 L182,86 C174.820298,86 169,91.8202983 169,99 L169,107 C169,114.179702 174.820298,120 182,120 L190,120 C197.179702,120 203,114.179702 203,107 L203,99 C203,91.8202983 197.179702,86 190,86 Z" transform="translate(-106 -80)"/>
</svg>
